<svg xmlns="http://www.w3.org/2000/svg" viewBox="0 0 2450.39 788.79"><defs><style>.cls-1{font-size:400px;}.cls-1,.cls-3{fill:#1d1d1b;font-family:UnioneForce-Stencil, Unione Force;}.cls-2{letter-spacing:-0.02em;}.cls-3{font-size:125px;}.cls-4{letter-spacing:-0.02em;}.cls-5{fill:#010101;}.cls-6{fill:none;stroke:#000;stroke-miterlimit:10;stroke-width:13px;}</style></defs><title>Recurso 1</title><g id="Capa_2" data-name="Capa 2"><g id="Capa_1-2" data-name="Capa 1"><text class="cls-1" transform="translate(729.37 424.66)">T<tspan class="cls-2" x="239.6" y="0">r</tspan><tspan x="464.4" y="0">y Hard</tspan></text><text class="cls-3" transform="translate(767.32 610.5)">Nev<tspan class="cls-4" x="207.87" y="0">e</tspan><tspan x="272.87" y="0">r give up</tspan></text><path class="cls-5" d="M365.8,247a245,245,0,0,1,153.36,53.22,17.49,17.49,0,0,0,23.2-1.36c23.79-23.81,36.37-51.82,36.37-81,0-39.93-23.17-76.92-65.23-104.16C473.79,88,421.34,73.81,365.8,73.81S257.81,88,218.1,113.68c-42.06,27.24-65.23,64.23-65.23,104.16,0,29.2,12.58,57.21,36.37,81a17.47,17.47,0,0,0,23.2,1.35A245,245,0,0,1,365.8,247Zm-178-29.16c0-27.67,17.49-54.24,49.26-74.81,34.12-22.09,79.83-34.26,128.7-34.26S460.38,120.94,494.5,143c31.77,20.57,49.27,47.14,49.27,74.81,0,15.5-5.58,30.84-16.27,45a282.69,282.69,0,0,0-323.39,0C193.42,248.68,187.84,233.34,187.84,217.84ZM666,229.5c0-62.27-31.89-120.48-89.79-163.91C519.78,23.3,445.07,0,365.8,0s-154,23.3-210.37,65.59C97.52,109,65.64,167.23,65.64,229.5c0,48.13,19.88,95.24,56.28,134A281.36,281.36,0,0,0,83.26,506.24C83.26,662,210,788.79,365.8,788.79S648.34,662,648.34,506.24a281.36,281.36,0,0,0-38.66-142.71C646.09,324.74,666,277.63,666,229.5ZM613.38,503.78c0,136.51-111.06,247.58-247.58,247.58S118.22,640.29,118.22,503.78a246.49,246.49,0,0,1,40.46-135.66,17.49,17.49,0,0,0-2.59-22.28C119.79,311.46,100.6,270.37,100.6,227c0-107.26,119-194.53,265.2-194.53S631,119.77,631,227c0,43.34-19.19,84.43-55.48,118.81a17.46,17.46,0,0,0-2.59,22.28A246.57,246.57,0,0,1,613.38,503.78Z"/><path class="cls-5" d="M366,299c-112.25,0-203.58,91.33-203.58,203.58S253.71,706.14,366,706.14s203.58-91.32,203.58-203.58S478.22,299,366,299Zm108.18,146.8-67.23,58.88a41,41,0,1,1-37.6-43l67.2-58.85a28.55,28.55,0,1,1,37.63,42.95Z"/><path class="cls-5" d="M34.56,341.14.83,459.07A21.42,21.42,0,1,0,42,470.85l10-34.93,41.77,11.95q2.47-12.21,5.92-24.3t7.83-23.76L65.76,387.86l10-34.93a21.43,21.43,0,0,0-41.2-11.79Z"/><line class="cls-6" x1="2450.39" y1="469.68" x2="729.37" y2="469.68"/></g></g></svg>